<?xml version="1.0" encoding="UTF-8"?>
<svg version="1.1" viewBox="0 0 903 903" width="903" height="903" xmlns="http://www.w3.org/2000/svg">
<path transform="translate(435,59)" d="m0 0h40l33 3 29 5 24 6 36 12 23 10 16 8 17 9 19 12 17 12 16 13 11 9 7 7 8 7 8 8 7 8 9 10 11 14 14 19 13 21 10 18 13 27 10 27 8 26 6 26 4 26 2 20v57l-3 28-5 27-7 28-11 32-11 25-10 20-15 25-12 17-10 13-11 13-7 8-14 15-16 15-11 9-15 12-27 18-19 11-17 9-28 12-36 12-24 6-29 5-33 3h-40l-33-3-29-5-24-6-36-12-23-10-16-8-17-9-19-12-17-12-16-13-11-9-8-8-8-7-7-7-7-8-9-10-11-14-14-19-13-21-12-22-10-21-10-26-8-25-6-25-5-31-2-20-1-31 1-26 3-28 6-32 7-26 10-29 11-25 14-27 15-24 14-19 9-11 12-14 15-16 15-14 13-11 17-13 24-16 21-12 15-8 28-12 36-12 29-7 24-4z" fill="#FCFCFC"/>
<path transform="translate(435,59)" d="m0 0h40l33 3 29 5 24 6 36 12 23 10 16 8 17 9 19 12 17 12 16 13 11 9 7 7 8 7 8 8 7 8 9 10 11 14 14 19 13 21 10 18 13 27 10 27 8 26 6 26 4 26 2 20v57l-3 28-5 27-7 28-11 32-11 25-10 20-15 25-12 17-10 13-11 13-7 8-14 15-16 15-11 9-15 12-27 18-19 11-17 9-28 12-36 12-24 6-29 5-33 3h-40l-33-3-29-5-24-6-36-12-23-10-16-8-17-9-17-11-1-2 5-1-1-13-2-10 1-12 4-9 4-6 8-7 9-3h10l1 2-2 3v3l8 4 2 4 3 1 3 5 2 7 11 1 1-94h8v94l313-1-6-16 1-4 12 10 10 7h6l-11-7-13-11-10-11v-2l-3-1-1-6h-3v-4l-6-2-3-2v-9l5-5 8-5 8-2 5-1 4 9 2 6h5l-3-10-2-5v-3l12-3h3l1 5 3-7 3 1h-2v6l-1 3 1 7h2l2 2h2l1-4-5-2v-5l10-3v-7l2-1 17-2h18v2l-6 5-2 3h-3v2l-9 4-6 3h-2v2h3l3 7 1 10 1 2h3l2-3v-13l-3-7h2l4 8 2 17 4 1 1-4v-15l-3-10 4 2 3 10 2 13 4-7v-10l-3-9 1-3 5 8v3h2l1-10 2-9 1-332 6 2 16 10 16 8 8 2h14l13-4 10-6 4-5 4-9v-9l-3-8-8-9-16-9-8-5-28-17-30-18-14-9-11-6-28-17-2-2-1-78-3-5-3-2h-43l-4 2-3 5-1 43-8-4-11-7-9-5-13-8-10-6-24-14-10-6-30-15-10-4-11-2h-19l-17 4-21 10-18 10-24 14-20 12-19 11-16 10-10 5-10 4-19 8-20 12-11 8h-2v2l-8 6-5 5-8 6-11 6-23 14-9 6-12 7-13 8-11 7-11 6-14 9-3 1-2 4-5 8v15l7 10 6 5 10 4 8 2h14l11-3 16-9 10-6 9-5 1 337-5 6-4 9-2 7-8-2h-9l-10 5-7 6-15-20-10-15-12-20-14-27-10-24-12-36-6-25-5-31-2-20-1-31 1-26 3-28 6-32 7-26 10-29 11-25 14-27 15-24 14-19 9-11 12-14 15-16 15-14 13-11 17-13 24-16 21-12 15-8 28-12 36-12 29-7 24-4z" fill="#A732E3"/>
<path transform="translate(445,112)" d="m0 0h19l13 3 11 4 19 10 22 12 16 10 9 5 23 14 17 10 5 3 1-42 4-6 4-2h43l6 5 1 3 1 78 16 10 21 13 9 5 23 14 65 39 8 7 4 5 2 7v9l-4 9-6 7-14 7-8 2h-14l-13-4-18-10-21-13-11-7-9-5-60-36-18-11-17-10-23-14-40-24-28-17-30-18-12-5-9-1-12 4-16 9-13 8-28 17-20 12-22 13-20 12-21 13-14 8-13 8-30 18-13 8-24 14-5 2v2l-11 6-14 8-13 8-15 5h-14l-12-3-10-6-7-8-3-5v-15l5-8 5-5 10-7 13-8 9-5 20-12 14-9 7-4 26-16 10-6 7-5 8-8h2v-2l18-12 11-7 18-8 11-5 10-4 22-13 26-15 11-7 21-12 13-8 21-10 8-4z" fill="#FE9666"/>
<path transform="translate(452,177)" d="m0 0 9 1 12 5 60 36 11 7 11 6 12 8 11 6 26 16 14 8 13 8 28 17 25 15 11 7 11 6 10 6-1 333-4 19h-2l-5-10 3 11v10l-5 9h-1l-3-20-3-6v1l2 8v15l-2 4-5-1-2-17-3-6 2 5v13l-3 4-4-1-1-2-1-10-2-4v-3h-3v-2l8-4 9-3v-2l3-1 6-7h2v-2h-16v-1l22-1v-287l-2-13-3-8-2 2-2-7v-3l-2-5h-2l-7-8-7-6-10-6-13-8-10-6-18-11-24-14-31-19-14-8v-2l-4-1-17-10-16-10-9-5-13-7-12-7-9-5-8-4-8-2h-10l-16 5-16 9-10 6-13 8-17 10-16 10-5 3h-3v2l-18 10-7 5-11 6-11 7-5 3h-3v2l-14 8-11 7-11 6-11 7-5 3h-3v2l-14 8-3 3h-2v2h-2l-2 4-3 4h-2l-2 6-6 14-2 12v289l12 1 5 5 2 5 5-2 1-1 1-7h-3v-9l1-1h6v-9l3-10 6-10 9-8 7-3 5-1h13l10 3 9 7 5 6 6 14 2 8v98h-1v-94h-8v95l-12-1-2-2-2-8-7-8-8-4 1-4 1-3h-10l-10 4-8 7-5 10-2 9 1 13 1 3v13l-6 2-17-12-16-13-11-9-8-8-8-7-7-7-7-8-9-10-4-5 2-4 7-6 7-3h9l8 2 3-12 6-8 1-1v-337l4-3h3v-2l24-14 18-11 22-13 15-9 18-11 115-69 21-13 11-5z" fill="#E4E4E6"/>
<path transform="translate(715,330)" d="m0 0 6 2 16 10 3 2v321l-3 17-4 13-5 12-8 15-13 16-7 7-12 9-16 9-13 5-16 4-10 1h-25l-42-1v-1l10-1-43-2-12-1h-17l-54 3 3 2-61 1-34-1-3-10-6-12-30-1-2-3 317-1 16-4-11-7-13-11-10-11v-2l-3-1-1-6h-3v-4l-6-2-3-2v-9l5-5 8-5 8-2 5-1 4 9 2 6h5l-3-10-2-5v-3l12-3h3l1 5 3-7 3 1h-2v6l-1 3 1 7h2l2 2h2l1-4-5-2v-5l10-3v-7l2-1 17-2h18v2l-6 5-2 3h-3v2l-9 4-6 3h-2v2h3l3 7 1 10 1 2h3l2-3v-13l-3-7h2l4 8 2 17 4 1 1-4v-15l-3-10 4 2 3 10 2 13 4-7v-10l-3-9 1-3 5 8v3h2l1-10 2-9z" fill="#C204D1"/>
<path transform="translate(317,354)" d="m0 0h71l6 4 4 8-1 8-3 6-8 4-64 1-11 4-8 6-7 9-3 7-1 6v10l2 9 4 8 6 7 9 6 11 3h10l12-4 4-1v-2l4-1 1-3h2l5-10-22-1-5-2-5-5-2-9 2-6 5-5 6-2h43l8 3 4 5 1 3v11l-3 15-7 14-5 7h-2l-1 3h-2l-2 4-3 1v2l-11 7-13 5-9 2h-21l-12-3-14-7-6-4v-2l-4-2-7-7-8-13-5-13-1-7v-22l3-13 6-12 7-10 8-7 11-8 12-5z" fill="#FE9666"/>
<path transform="translate(270,609)" d="m0 0h13l10 3 9 7 5 6 6 14 2 8v98h-1v-94h-8v95l-12-1-2-2-2-8-7-8-8-4 1-4 1-3h-10l-10 4-8 7-5 10-2 9 1 13 1 3v13l-6 2-17-12-3-2 2-30 2-10-5-1v-1h8v-10l2-15 1-17v-9l5-1 2-2 1-7h-3v-9l1-1h6v-9l3-10 6-10 9-8 7-3z" fill="#D9DAE4"/>
<path transform="translate(193,329)" d="m0 0h1l1 337-5 6-4 9-2 7-8-2-4-2-3-15-1-7v-318l15-9z" fill="#C106D1"/>
<path transform="translate(365,150)" d="m0 0h6l2 3 9 3-1 7-8 10-13 13-10 7-18 14-14 10-20 13-31 19-22 12-16 9-32 16-9 4-18 5-11 2-4 1h-7l-1-4 5-10 1-3-2-1 3-3 18-11 10-6 32-20 7-4 7-5 8-8h2v-2l18-12 11-7 18-8 11-5 10-4 22-13 26-15z" fill="#FCC2A7"/>
<path transform="translate(306,651)" d="m0 0h8v94l313-1-6-16 1-4 12 10 10 7 4 2-14 3-316 1 1 1 30 1 8 16 1 6-3 2-20 1-6 1-35 1-10-2-6 4-10 3-7-2-4-1h-17l-1-2 5-1-1-13-2-10 1-12 4-9 4-6 8-7 9-3h10l1 2-2 3v3l8 4 2 4 3 1 3 5 2 7 11 1z" fill="#605DDC"/>
<path transform="translate(424,410)" d="m0 0 10 1 7 6 2 5 1 30 4 5 4 2 9-1 3-6 1-31 4-6 3-3 6-2 9 1 5 3 3 3 2 5v34l-4 13-4 6h-2l-2 4-8 7-12 5-3 1h-14l-13-4-9-6-9-10-5-13-1-6v-30l3-7 4-2v-2z" fill="#FE9666"/>
<path transform="translate(683,660)" d="m0 0h18v2l-6 5-2 3h-3v2l-9 4-6 3h-2v2h3l3 7 1 10 1 2h3l2-3v-13l-3-7h2l4 8 2 17 4 1 1-4v-15l-3-10 4 2 3 10 1 17-6 9h-2l-2 4-12 12-14 9-14 5-12-8-13-11-10-11v-2l-3-1-1-6h-3v-4l-6-2-3-2v-9l5-5 8-5 8-2 5-1 4 9 2 6h5l-3-10-2-5v-3l12-3h3l1 5 3-7 3 1h-2v6l-1 3 1 7h2l2 2h2l1-4-5-2v-5l10-3v-7l2-1z" fill="#9DA4E3"/>
<path transform="translate(212,659)" d="m0 0 10 1 5 5 1 2 1 15-1 14-3 25-5 1 2 1-3 38h-3l-16-13-24-22-15-16-9-11v-4l8-7 7-3h9l8 2 3-12 6-8 4-2v-2l7-3z" fill="#F7DCEA"/>
<path transform="translate(270,616)" d="m0 0h13l12 7 5 6v3h2v5h2l1 3v97h-14l-3-5-7-6-6-3 1-4 1-5-1-19-2-14-4-9-4-5-10-7v-9h-3v-2h-4l1-11 6-12h2l1-3 7-5z" fill="#FCFCFC"/>
<path transform="translate(523,409)" d="m0 0 8 2 5 3 8 14 6 12 5-7 8-16 4-5 8-3 7 1 6 4 4 5v12l-8 15-10 19-11 21-8 5h-9l-6-3-3-4-5-9-10-19-6-12-7-13-1-9 3-6 5-5z" fill="#A733E3"/>
<path transform="translate(343,153)" d="m0 0h9l3 1-1 4-21 12-17 10-10 6-11 5-10 4-14 6-20 12-11 8h-2v2l-8 6-5 5-8 6-11 6-23 14-9 6-7 4h-2l1-4 6-9h2l2-4h2v-2l8-7 3-3h2l2-4 4-5h2v-2l7-6 2-3h2v-2l10-8 9-7 11-7 5-2 3-3 13-6 16-6 9-4 13-4 15-7 4-4 12-5z" fill="#BB5AE2"/>
<path transform="translate(365,150)" d="m0 0h6l2 3 9 3-1 7-8 10-13 13-10 7-18 14-14 10-20 13-31 19-22 12-16 9-32 16-9 4-18 5-11 2-4 1h-7l-1-4 5-10 1-3-2-1 3-3 7-4 5 1 1 9 3 1 11-2 17-6 17-9 32-16 21-11 8-6 7-4 11-8 9-6 13-9 6-4 8-7 14-9 11-10 6-5 1-5-3-2-1-5 2-3-10 4v-2z" fill="#FEBC96"/>
<path transform="translate(306,651)" d="m0 0h8v94l313-1-6-16 1-4 12 10 10 7 4 2-14 3-316 1 1 1 30 1 8 16 1 6-2-2-7 1-54 2-1-6v-16h11l1-3v3h2l-1-5v-64z" fill="#7780F8"/>
<path transform="translate(619,409)" d="m0 0 8 1 6 4 3 4 1 3v59l-5 8-6 3h-10l-5-3v-2l-4-2-2-5v-57l3-6 6-5z" fill="#9CA5E4"/>
<path transform="translate(618,721)" d="m0 0 4 2 1 8 5 14h-313v-8l95 1h171l15-7 11-3h3l1-2 4-1z" fill="#E5E5E7"/>
<path transform="translate(347,163)" d="m0 0h2v2l-15 10-11 8-5 5-7 6h-2v2l-6 4-5 6h-2l-2 4-12 9-19 12-23 11-16 7-10 3-10 5-10 2-13 6-8 3-1-2 10-6 32-20 7-4 7-5 8-8h2v-2l18-12 11-7 18-8 11-5 10-4 12-7 6-2z" fill="#FDD6BE"/>
<path transform="translate(608,133)" d="m0 0h43l3 2-1 8-3 13-6 4-6 3-3 9-9 10-2 3h-2l5 5 4 3v2l-5 1-1-2h-3-6l-13-8-3-2v-43l4-6z" fill="#FBCABB"/>
<path transform="translate(270,675)" d="m0 0h2l3 6 2 14 1 21h-11l-10 4-8 7-5 10-2 9v12h-1v-5l-10-3-6-7 1-25 3-15 7-16 5-3 25-2 2-5z" fill="#C4CAF1"/>
<path transform="translate(517,445)" d="m0 0h67l-16 32-5 9-8 5h-9l-6-3-3-4-5-9-10-19-5-9z" fill="#9CA5E4"/>
<path transform="translate(452,177)" d="m0 0 9 1 12 5 7 4-3 1-8-2h-20l-13 5-10 5-9 5-4 1v2l-14 8-6 4h-2v2l-11 5-10 6-7 2-3 1-1 2-4 1-1 3-16 9-16 10h-3v2l-14 8-16 10-11 6-7 5-4 2h-3v2l-14 8-16 10-5 2-2 4-3 3h-2v2h-2l-2 4-7 11-4 7h-2l-2 6-8 15h-1v-35l4-3h3v-2l24-14 18-11 22-13 15-9 18-11 115-69 21-13 11-5z" fill="#DBD9E1"/>
<path transform="translate(645,606)" d="m0 0h5l4 6 1 7-1 4-12 6-13 5-10 3v7l-5 3-3-4v-2h-3v2l-10 3-7 3-13 5h-4l-3-9v-9l6-3h5v-2l10-4 7-1v-2l25-9h3v-2l10-3z" fill="#FD986A"/>
<path transform="translate(693,674)" d="m0 0 4 2 3 10 1 15h-2l-1 3-5 4-1 2h-2v2l-6 5h-2l-2 4-5 5-7 2-5-3-3-11-3-7-6-3-16-2-16-1 7 11 7 7 3 2v2l4 2 9 7-1 3-9-6-4-3v-2l-3-1v-2l-3-1-6-7-2-1v-2l-3-1v-2h-4l-1-7h-2v-2l25-1 5-1h12v-2l14-4 6-4 1-4h2l3 6 1 10 1 2h3l2-3v-13l-3-7h2l4 8 2 17 4 1 1-4v-15z" fill="#4640A9"/>
<path transform="translate(270,609)" d="m0 0h13l10 3 9 7 5 6 6 14 2 8v98h-1v-94h-8v95l-12-1-2-2v-6h13l-1-100h-2v-5h-2l-3-5-5-5-9-5h-13l-8 5-6 5-5 11-2 11h4v2h2v8h-21v-9h6v-9l3-10 6-10 9-8 7-3z" fill="#F7DDEA"/>
<path transform="translate(346,159)" d="m0 0 4 1-22 13-18 11-10 5-10 4-19 8-20 12-11 8h-2v2l-8 6-5 5-8 6-11 6-23 14-6 4-1-3 8-7h2l1-3 17-12 4-2v-2l11-9h2l1-4 5-4 1-2 6-1v-2l5-2 1-3 7-5 7-3 19-9 12-4 15-7 9-4h3v-2l9-4 12-6 5-3z" fill="#BA71DB"/>
<path transform="translate(619,701)" d="m0 0h16l16 2 7 4 3 7 3 11 5 2 7-3 6-7 5-2 1-3h2v-2h2l2-4 5-5h2l-2 5-4 6h-2l-2 4-12 12-14 9-14 5-12-8-13-11-4-4v-2h2l-2-5 7 6 4 5 2 1v2l4 2 9 6-2-4-10-7-12-12-5-8z" fill="#8F7BD5"/>
<path transform="translate(284,773)" d="m0 0 13 2 45-1-1 4-10 6-28 6-15 2-24 1-20-12-3-3 6-1h10l10 2h3l10-3z" fill="#7A1292"/>
<path transform="translate(619,409)" d="m0 0 8 1 6 4 3 4 1 3v26h-32v-25l3-6 6-5z" fill="#A732E3"/>
<path transform="translate(475,353)" d="m0 0h8l8 4 4 5 2 5v7l-4 8-4 4-6 2h-7l-6-2v-2l-4-2-4-7v-8l4-8z" fill="#FE9869"/>
<path transform="translate(427,353)" d="m0 0 8 1 6 4 5 7v11l-6 8-4 3-4 1h-7l-8-4-4-5-1-3v-11l4-7 6-4z" fill="#FE9869"/>
<path transform="translate(683,660)" d="m0 0h18v2l-6 5-2 3h-3v2l-9 4-6 3h-2v2l3 1h-2l-1 5-8 5-8 2h-4v2l-17 2h-11v-1l11-1 1-3 9-4 2-1-3-2 8-1 1-3 2 2h2l1-4-5-2v-5l10-3v-7l2-1z" fill="#8E7AD5"/>
<path transform="translate(500,769)" d="m0 0h23l30 1v2h10l4 2-26 3-27 4-4 1-11-1-21-2-50-4-3-2 61-1-5-1v-1z" fill="#BA6FDB"/>
<path transform="translate(500,527)" d="m0 0h11l8 7 2 5v10l-3 5-5 5-2 1h-11l-5-2-5-7v-15l5-6z" fill="#FAF8FB"/>
<path transform="translate(296,189)" d="m0 0 4 1v1l6-2-4 4-11 7-18 13-15 9-9 5-19 9-17 9-2-1v-2l10-6 7-5 8-8h2v-2l18-12 11-7 18-8z" fill="#F2DCEA"/>
<path transform="translate(710,659)" d="m0 0h4v7l-3 15h-2l-5-10 3 11v10l-5 9h-1l-3-20-3-6v1l2 8v15l-2 4-5-1-2-17-3-6 2 5v13l-3 4-4-1-1-2-1-10-2-4v-3h-3v-2l8-4 9-3v-2l3-1 2-3 13-1v-4z" fill="#FC9B6F"/>
<path transform="translate(261,527)" d="m0 0h15l8 4 5 7v12l-7 8-4 2h-17z" fill="#872AA8"/>
<path transform="translate(572,528)" d="m0 0h18l6 4 4 6v12l-7 8-4 2h-17z" fill="#8324A0"/>
<path transform="translate(458,528)" d="m0 0h18l7 5 3 7v7l-3 7-5 4-3 2h-17z" fill="#F6F6FB"/>
<path transform="translate(517,445)" d="m0 0h67l-7 14h-53l-7-12z" fill="#927CD5"/>
<path transform="translate(167,685)" d="m0 0h9l8 3-1 11-3 16-2 10h-3l-14-15-9-11v-4l8-7z" fill="#FCFBFC"/>
<path transform="translate(233,651)" d="m0 0h1v8h21v-8h1l1 9 11 8 2 4-7 7-13 1-16 5-6 5v-20l5-1 2-2 1-7h-3z" fill="#E4E3E7"/>
<path transform="translate(192,330)" d="m0 0h1v33l-8 3-6 1h-9l-2-1v-22l15-9z" fill="#90049D"/>
<path transform="translate(608,133)" d="m0 0h22l18 2v4l-13 2h-7l-5 2-5 8h-2l-2 4h-2l-2 4-4 9-4-1-1-8v-20l5-5z" fill="#FDD6BD"/>
<path transform="translate(715,330)" d="m0 0 6 2 16 10 3 2v20l-10-1-10-4-5-4z" fill="#91049E"/>
<path transform="translate(190,670)" d="m0 0 2 1-1 3h7l3 2v19l-3 23h-2l-1-12-1-1h-6l-3 6-4 10-2-1 1-8 5-31 4-9z" fill="#FDD6BE"/>
<path transform="translate(274,613)" d="m0 0h7l11 4 8 6 3 4v2l7 2 5 16v98h-1v-94h-8v95l-12-1-2-2v-6h13l-1-100h-2v-5h-2l-3-5-5-5-9-5-13-1 1-2z" fill="#BEC2EE"/>
<path transform="translate(635,527)" d="m0 0h17l6 3 3 5-1 9-4 4-2 1h-15v11h-4z" fill="#821EA1"/>
<path transform="translate(621,724)" d="m0 0 8 6 15 11 4 2-14 3-318 1-1-2 312-1-6-16z" fill="#BA6EDB"/>
<path transform="translate(655,650)" d="m0 0h8l9 7 1 4 3-1h7v1l-19 2 1 7-8 3h-3l1 5 6 2-5 5-2-1v-2h-2l-2-9 2-7-2 4-3 3-2-7-4-1-1-6 1-1h6l1-5z" fill="#E9D9D5"/>
<path transform="translate(651,134)" d="m0 0 3 1-1 8-3 13-6 4-6 3-3 9-9 10-19-6 2-3 8-2 5-3 4-3 3-5 9-11 4-2 7-2 2-9z" fill="#FDC1A6"/>
<path transform="translate(504,766)" d="m0 0h17l32 2 47 2v1h-47l-30-1h-23l-9 1v1l-5 1h-40v-1l-23-1v-1l67-3z" fill="#B44EE2"/>
<path transform="translate(304,189)" d="m0 0 2 1-15 10-18 13-15 9-9 5-19 9-17 9-2-1 15-9 15-10 10-7 19-11 23-12z" fill="#F9F9F9"/>
<path transform="translate(652,619)" d="m0 0h2v4l-12 6-13 5-10 3v7l-5 3-3-4v-2h-3v2l-10 3-7 3-13 5h-4v-6l7-1 24-9 10-4 16-6 20-8z" fill="#524BB2"/>
<path transform="translate(710,659)" d="m0 0h4v7l-3 15h-2l-5-10 3 11v10l-5 9h-1l-3-20-3-6-5-3v-2l3-1 2-3 13-1v-4z" fill="#FE9769"/>
<path transform="translate(605,447)" d="m0 0h32v12h-32z" fill="#9879D6"/>
<path transform="translate(527,528)" d="m0 0 5 1 10 13 6 8 1-22h4v32h-4l-2-5h-2l-12-16v-2h-2v23h-4z" fill="#7E169A"/>
<path transform="translate(266,532)" d="m0 0h12l5 4 1 2v12l-4 4-2 1h-12z" fill="#FCFBFC"/>
<path transform="translate(577,532)" d="m0 0h12l5 4 1 3v10l-4 5-2 1h-12z" fill="#FCFBFC"/>
<path transform="translate(500,527)" d="m0 0h11l8 7 2 5v10l-3 5-5 5-2 1h-11l-5-2-5-7v-15l5-6zm1 4-4 2-3 5v10l3 5 6 4 7-1 5-4 1-2v-12l-3-5-4-2z" fill="#801C9D"/>
<path transform="translate(619,701)" d="m0 0h16l16 2 7 4 3 7 3 11 5 2 7-3 2-2v3l-4 3-6 3h-11l-4-2-3-9-1-9-1-4-11-3-8-1h-10z" fill="#5E5CDB"/>
<path transform="translate(458,528)" d="m0 0h18l7 5 3 7v7l-3 7-5 4-3 2h-17zm4 3v25h11l6-4 2-3v-10l-4-6-4-2z" fill="#80199E"/>
<path transform="translate(683,660)" d="m0 0h18v2l-6 5-2 3h-3v2l-9 4-5 1-3-7-8-2-1-5 2-1z" fill="#6764DB"/>
<path transform="translate(605,528)" d="m0 0h24v3h-20v11h18v4h-18v10h20v4h-24z" fill="#7A1292"/>
<path transform="translate(338,528)" d="m0 0h4v14h18v-14h4v32h-4v-14h-19v14h-3z" fill="#7C1695"/>
<path transform="translate(227,671)" d="m0 0h1l1 11-1 14-3 25-11 1-18-1v-1l21-1 1-10 4-22 4-11z" fill="#FBCBBB"/>
<path transform="translate(651,665)" d="m0 0 3 1h-2v6l-1 3 2 10-8 2h-7l-5-11-1-6 12-3h3l1 5z" fill="#473FA9"/>
<path transform="translate(413,528)" d="m0 0h4l1 24 6 4h5l4-3h2v-25h4v25l-5 6-2 1h-12l-5-5-2-3z" fill="#7B1495"/>
<path transform="translate(624,673)" d="m0 0h2l4 9 1 6-6 1h-10l-10-2-2-3 5-5 5-3 8-2z" fill="#4B44AD"/>
<path transform="translate(378,528)" d="m0 0h5l8 19 2 6 5-12 4-10 2-3h4l-3 11-9 21h-6l-6-16-4-9z" fill="#7F1A9C"/>
<path transform="translate(316,527)" d="m0 0h13l3 2-1 4-4-1h-9l-4 2-3 4v12l6 5 8 1 5-2h3v4l-4 2h-13l-6-4-4-6v-12l3-6z" fill="#80189C"/>
<path transform="translate(653,695)" d="m0 0h5l-4 3-5 2h-30l6 11 8 8 3 2v2l4 2 9 7-1 3-9-6-4-3v-2l-3-1v-2l-3-1-6-7-2-1v-2l-3-1v-2h-4l-1-7h-2v-2l25-1z" fill="#65249B"/>
<path transform="translate(267,718)" d="m0 0 7 1v4h-13v2l-6 4h-2l-2 5-3 5-2 7v9l4 12 3 5 2 1v2l2 1-6-1-6-4-2-14v-15l3-8 4-6 5-5 8-4z" fill="#493CA7"/>
<path transform="translate(268,672)" d="m0 0 4 1v2l-8 8-23 2-4 2-8 18v6l-3 5h-1l1-15 2-11 4-5 14-5 4-1 13-1 3-3z" fill="#DADAE4"/>
<path transform="translate(467,371)" d="m0 0h25l-1 7-7 5h-10l-6-5z" fill="#FCFBFA"/>
<path transform="translate(416,371)" d="m0 0h26l-3 8-5 4h-10l-6-4-2-4z" fill="#FCFBFB"/>
<path transform="translate(356,768)" d="m0 0 1 4-2 1-20 1-6 1-35 1v-4l3-1 52-2z" fill="#685ED7"/>
<path transform="translate(665,668)" d="m0 0h6l4 4 2 6-4 1v2l-13 4-4-1h2l1-4-5-2v-5l10-3z" fill="#9BA3E3"/>
<path transform="translate(639,531)" d="m0 0h13l5 5v5l-5 4h-13z" fill="#F0F0F9"/>
<path transform="translate(655,650)" d="m0 0h8l9 7 1 4 3-1h7v1l-21 2-7-5-8-1 1-4z" fill="#DBDCE4"/>
<path transform="translate(621,724)" d="m0 0 8 6 15 11 4 2-9 2h-11l-5-12-2-5z" fill="#9CA5E4"/>
<path transform="translate(305,643)" d="m0 0h1v103l-12-1-2-2v-6h13z" fill="#D5D6E7"/>
<path transform="translate(692,316)" d="m0 0 6 2 16 10v18l-4-4-1-4h-2l-6-10-7-8v-2h-2z" fill="#DAD9E2"/>
<path transform="translate(517,445)" d="m0 0h67l-2 3-63 1z" fill="#BB6FDB"/>
<path transform="translate(610,636)" d="m0 0 2 1 3 6-1 4-3-4v-2h-3v2l-10 3-7 3-13 5h-4v-6l7-1 24-9z" fill="#5F4BB2"/>
<path transform="translate(619,642)" d="m0 0h1l3 10 7 16v2h2l5 13v5h-5l2-2-10-22v-2h-2l-6-9-1-4-2-1 1-2 4-2z" fill="#DBDBE5"/>
<path transform="translate(690,672)" d="m0 0 4 1 3 11v15l-2 4-5-1-2-17v-6l2 2z" fill="#F79871"/>
<path transform="translate(629,133)" d="m0 0 14 1 6 2-1 3-13 2-7-1-17-1-2-2 5-2z" fill="#FED7BE"/>
<path transform="translate(257,729)" d="m0 0 2 1-1 4h-2l-2 5-2 7v11l3 6 10 9-4 1-7-3-4-6-2-6v-15l5-10z" fill="#7882FA"/>
<path transform="translate(247,649)" d="m0 0 8 2v8h-21v-8h7l3 1v-2z" fill="#767EF6"/>
<path transform="translate(269,743)" d="m0 0h6l3 3v9l-4 4-5-1-4-4v-6z" fill="#9CA5E4"/>
<path transform="translate(267,715)" d="m0 0h10l1 2-2 3v4h-2v-5h-7l-11 4-3 1-2 4-5 7-2 7v20l-2-3-1-13 3-12 6-9 8-7z" fill="#9897DF"/>
<path transform="translate(296,189)" d="m0 0 2 1-6 4-24 11-15 9-11 8-5 2v2l-4 1 3-4h2v-2l18-12 11-7 18-8z" fill="#BAC1EE"/>
<path transform="translate(617,726)" d="m0 0 4 1 2 9-2 1-21 1-3-1v-2l3-1h9l4-5z" fill="#FCFCFC"/>
<path transform="translate(264,616)" d="m0 0h6l-1 2-6 3-7 6-5 11-2 11 4 1h-9v2l-10-1v-1h6v-3h5l5-15 3-6h2l2-4z" fill="#BDC3ED"/>
<path transform="translate(295,528)" d="m0 0h4v32h-4z" fill="#7A1292"/>
<path transform="translate(217,721)" d="m0 0h8v9l-2 14-2 16-1 3h-2l2-30 2-10-5-1z" fill="#BFC5F0"/>
<path transform="translate(267,718)" d="m0 0 7 1v4h-13v2l-6 4h-4l-2 5-3 6h-1v-5l6-8 5-5z" fill="#692099"/>
<path transform="translate(270,224)" d="m0 0 2 1-11 7-21 10-16 7-8 1 4-3 29-12 16-8z" fill="#FBCBBC"/>
<path transform="translate(618,707)" d="m0 0 6 2 7 8 5 4v2l4 2 9 7-1 3-9-6-4-3v-2l-3-1v-2l-3-1-6-7-2-1v-2l-3-1z" fill="#4640AA"/>
<path transform="translate(624,721)" d="m0 0 8 6 8 7 11 7v1h-7l-16-12-2-5z" fill="#E1E2E6"/>
<path transform="translate(292,737)" d="m0 0h13v8h-11l-2-2z" fill="#E1E1E7"/>
<path transform="translate(227,671)" d="m0 0h1v9l-4 13-4 19v8l-3-1 1-10 4-22 4-11z" fill="#FED7BE"/>
<path transform="translate(651,665)" d="m0 0 3 1h-2v6l-1 5-3 1-11-6-5-1 4-2 11-2 1 5z" fill="#736EDB"/>
<path transform="translate(500,769)" d="m0 0h23l14 1v1l-18 1h-16l-22-1v-1z" fill="#F8E1ED"/>
<path transform="translate(691,660)" d="m0 0h10v2l-6 5-2 3-6 1 1-3-3-6z" fill="#4741A9"/>
<path transform="translate(242,759)" d="m0 0 2 3v13l-6 2-5-5 6-5z" fill="#C4CAF1"/>
<path transform="translate(710,659)" d="m0 0h4v7l-2 10-3-3-3-5-4-2 5-1 1-4z" fill="#FD9466"/>
<path transform="translate(711,657)" d="m0 0h3v2l-5 2v4l-2 1h-11l3-4h2v-2h-16v-1l23-1z" fill="#EACAC8"/>
<path transform="translate(621,724)" d="m0 0 8 6 14 10v2l-5-2-10-3-5-9z" fill="#9381D6"/>
<path transform="translate(603,682)" d="m0 0 2 4 3 1v2l11 1v1l-11 1-5 2-2 2-1-1v-9z" fill="#BFC3EE"/>
<path transform="translate(676,685)" d="m0 0 3 3v12h-2v2l-4-1-2-9 5-1z" fill="#791393"/>
<path transform="translate(653,695)" d="m0 0h5l-4 3-5 2h-21l2-2 11-2z" fill="#741694"/>
<path transform="translate(673,682)" d="m0 0 1 4-9 6-8 2h-4v2h-5l4-3 16-8z" fill="#5D5BD8"/>
<path transform="translate(614,135)" d="m0 0h16l2 3-4 1h-17l-2-2z" fill="#F8DDEB"/>
<path transform="translate(222,752)" d="m0 0 1 2 6 2 2 4-7 2-3 3-1-5 1-7z" fill="#E5E5E6"/>
<path transform="translate(244,763)" d="m0 0h1l1 8 7 4 8 2-4 1h-17l-1-2 5-1z" fill="#9792DD"/>
<path transform="translate(683,677)" d="m0 0h2l4 8 1 10-2 8-5-1 3-5v-13z" fill="#771493"/>
<path transform="translate(629,668)" d="m0 0 1 2h2l5 13v5h-5l2-2-7-17z" fill="#D4D4E5"/>
<path transform="translate(537,770)" d="m0 0h16v2h10v1h-29l-2-2z" fill="#BB5FE1"/>
<path transform="translate(695,666)" d="m0 0 1 3 4-1 1 4-2 9-2-3-4-5-3-1v-2l3-1z" fill="#F0C5BC"/>
<path transform="translate(291,764)" d="m0 0 2 1 1 3v7h-7l-2-1 2-4z" fill="#4640A9"/>
<path transform="translate(706,682)" d="m0 0h1v10l-5 9h-1l-1-10 2-4 4-1z" fill="#E3BFC4"/>
<path transform="translate(652,670)" d="m0 0 3 3v5l6 2-5 5-2-1v-2h-2l-2-9z" fill="#CDCFE7"/>
<path transform="translate(521,767)" d="m0 0h12l4 1v2h-14l-20-1v-1z" fill="#B85FDE"/>
<path transform="translate(258,208)" d="m0 0v3l-11 7-8 6h-2v2l-4 1 3-4h2v-2l18-12z" fill="#C0C6F0"/>
<path transform="translate(638,723)" d="m0 0 14 7 3 6-1 1-7-1-1-2h2l-2-4-8-6z" fill="#5F5DDC"/>
<path transform="translate(688,672)" d="m0 0h2l1 2v8h-3l-3-3v-2h-5l2-3z" fill="#F7C6B5"/>
<path transform="translate(662,664)" d="m0 0 3 2-1 5-7 1-3-5z" fill="#FE9B6F"/>
<path transform="translate(677,677)" d="m0 0h3v21h-1l-1-10-2-4v-3h-3v-2z" fill="#EBC0B9"/>
<path transform="translate(232,228)" d="m0 0m-1 1 2 2-10 7-9 5-3-1 10-6z" fill="#F7DBD7"/>
<path transform="translate(702,667)" d="m0 0 5 1 5 9-1 4h-2l-5-10v-2h-2z" fill="#EFC5C0"/>
<path transform="translate(264,616)" d="m0 0h6l-1 2-6 3-7 6-2 2-1-3h2l2-4z" fill="#B6BDEC"/>
<path transform="translate(703,670)" d="m0 0 4 4 3 7-1 6-2 1-3-12z" fill="#711996"/>
<path transform="translate(294,746)" d="m0 0h12l-1 4h-11z" fill="#BF0CD3"/>
<path transform="translate(247,765)" d="m0 0h2l4 7 2 1v2l2 1-6-1-5-4z" fill="#4640A9"/>
<path transform="translate(614,707)" d="m0 0h4l4 5 2 5-3 1-6-8z" fill="#9BA1E2"/>
<path transform="translate(198,326)" d="m0 0h3l-1 5-5 6h-1v-8z" fill="#9CA5E4"/>
<path transform="translate(693,674)" d="m0 0 4 2 3 10-1 5-2-1-3-14z" fill="#791594"/>
<path transform="translate(572,635)" d="m0 0 2 1 2 12-3 1-2-4v-9z" fill="#FEC2A2"/>
<path transform="translate(641,658)" d="m0 0h5l1 5-1 1h-5l-1-5z" fill="#FEAC85"/>
<path transform="translate(294,206)" d="m0 0h2l-2 4-12 9-2-1z" fill="#FBCBBC"/>
<path transform="translate(570,639)" d="m0 0h2v6l2 4v5l2 1-4-1-3-9z" fill="#CED1EC"/>
<path transform="translate(672,658)" d="m0 0 1 3 3-1h7v1l-21 2 2-2z" fill="#DFE0E8"/>
<path transform="translate(266,717)" d="m0 0h11l-1 7h-2v-5h-7l-7 1 2-2z" fill="#9280D7"/>
<path transform="translate(183,259)" d="m0 0 2 1-4 5-8 3-1-2 10-6z" fill="#FDCFB7"/>
<path transform="translate(298,189)" d="m0 0 2 1-5 5-6 3h-2l2-4 8-4z" fill="#F3D9D7"/>
<path transform="translate(296,189)" d="m0 0 2 1-6 4-7 3h-5l3-2 8-4z" fill="#B1B9EB"/>
<path transform="translate(517,769)" d="m0 0 20 1v1l-21 1z" fill="#F8DDEB"/>
<path transform="translate(285,196)" d="m0 0h2v3l-7 4h-2l2-4z" fill="#F1DEE6"/>
<path transform="translate(611,698)" d="m0 0h19v1h-15l-2 4v-3h-2z" fill="#5350C5"/>
<path transform="translate(307,184)" d="m0 0v3 2l-8 4-2-1 5-5z" fill="#F8D6C5"/>
<path transform="translate(608,679)" d="m0 0 2 1-3 7-4-2 2-4z" fill="#615DD7"/>
</svg>
